<?xml version="1.0" standalone="no"?>
<!DOCTYPE svg PUBLIC "-//W3C//DTD SVG 20010904//EN"
 "http://www.w3.org/TR/2001/REC-SVG-20010904/DTD/svg10.dtd">
<svg version="1.0" xmlns="http://www.w3.org/2000/svg"
 width="512.000000pt" height="512.000000pt" viewBox="0 0 512.000000 512.000000"
 preserveAspectRatio="xMidYMid meet">

<g transform="translate(0.000000,512.000000) scale(0.100000,-0.100000)"
fill="#000000" stroke="none">
<path d="M2668 3776 l-3 -88 -545 -2 c-593 -1 -572 1 -627 -58 -55 -59 -53
-16 -53 -1078 0 -810 2 -986 14 -1013 16 -39 61 -82 99 -96 18 -7 136 -11 312
-11 l283 0 132 138 c118 121 421 464 459 517 8 11 -122 -115 -289 -280 -168
-165 -291 -284 -274 -265 17 19 199 229 404 465 311 359 434 492 741 800 342
344 369 373 369 405 l0 35 -107 -105 -107 -105 69 80 c38 44 86 99 107 122
l38 43 0 136 c0 74 -4 134 -8 132 -5 -1 -327 -307 -716 -678 -418 -399 -721
-680 -740 -688 -72 -29 -155 47 -127 116 10 24 755 747 1027 997 l54 50 -254
260 -255 260 -3 -89z"/>
<path d="M3890 3665 l1 -150 50 55 c27 30 58 67 69 81 l19 26 -70 69 -69 68 0
-149z"/>
<path d="M3202 3583 c56 -57 107 -103 112 -103 5 0 57 47 115 105 l106 106
-218 -3 -218 -2 103 -103z"/>
<path d="M3981 3536 c-59 -59 -92 -100 -89 -110 2 -12 27 10 83 75 137 158
139 169 6 35z"/>
<path d="M1562 1143 l148 -148 115 115 115 115 -202 5 c-196 5 -205 6 -263 33
l-60 28 147 -148z"/>
</g>
</svg>
